
<svg width="100" height="100" viewBox="0 0 16 16" xmlns="http://www.w3.org/2000/svg">
  <!-- Miner's helmet (yellow) -->
  <rect x="5" y="2" width="6" height="2" fill="#FFD700" />
  <rect x="4" y="4" width="8" height="1" fill="#FFD700" />
  
  <!-- Head (skin tone) -->
  <rect x="5" y="5" width="6" height="4" fill="#F4A261" />
  
  <!-- Eyes (white with black pupils) -->
  <rect x="6" y="6" width="1" height="1" fill="#FFFFFF" />
  <rect x="9" y="6" width="1" height="1" fill="#FFFFFF" />
  <rect x="6" y="6" width="1" height="1" fill="#000000" rx="0.5" />
  <rect x="9" y="6" width="1" height="1" fill="#000000" rx="0.5" />
  
  <!-- Mouth (smiling) -->
  <rect x="7" y="8" width="2" height="1" fill="#E76F51" />
  
  <!-- Shirt (blue) -->
  <rect x="4" y="9" width="8" height="4" fill="#2A9D8F" />
  
  <!-- Arms (skin tone and shirt) -->
  <rect x="3" y="9" width="1" height="3" fill="#F4A261" />
  <rect x="12" y="9" width="1" height="3" fill="#F4A261" />
  
  <!-- Pants (dark gray) -->
  <rect x="5" y="13" width="6" height="2" fill="#264653" />
  
  <!-- Boots (brown) -->
  <rect x="5" y="15" width="2" height="1" fill="#8D5524" class="boot" />
  <rect x="9" y="15" width="2" height="1" fill="#8D5524" class="boot" />
</svg>