<svg viewBox="0 0 16 16" xmlns="http://www.w3.org/2000/svg">
  <!-- Miner's helmet (yellow) -->
  <path d="M5 3.5C5 2.7 5.7 2 8 2s3 0.7 3 1.5v1H5v-1z" fill="#FFD700" />
  <path d="M4 4.5C4 4.2 5 4 8 4s4 0.2 4 0.5v0.5H4v-0.5z" fill="#FFD700" />
  <ellipse cx="8" cy="2.5" rx="1" ry="0.5" fill="#FFD700" />
  
  <!-- Helmet light -->
  <circle cx="8" cy="2" r="0.5" fill="#FFFFFF" />
  <circle cx="8" cy="2" r="0.3" fill="#FFFFAA" />
  
  <!-- Head (skin tone) -->
  <path d="M5.5 5C5.2 5 5 5.2 5 5.5v3C5 8.8 5.2 9 5.5 9h5c0.3 0 0.5-0.2 0.5-0.5v-3C11 5.2 10.8 5 10.5 5h-5z" fill="#F4A261" />
  
  <!-- Eyes (white with black pupils) -->
  <ellipse cx="6.5" cy="6.5" rx="0.6" ry="0.8" fill="#FFFFFF" />
  <ellipse cx="9.5" cy="6.5" rx="0.6" ry="0.8" fill="#FFFFFF" />
  <circle cx="6.5" cy="6.5" r="0.3" fill="#000000" />
  <circle cx="9.5" cy="6.5" r="0.3" fill="#000000" />
  
  <!-- Eyebrows -->
  <path d="M6 5.8C6.2 5.7 6.8 5.7 7 5.8" stroke="#8A6642" stroke-width="0.2" fill="none" />
  <path d="M9 5.8C9.2 5.7 9.8 5.7 10 5.8" stroke="#8A6642" stroke-width="0.2" fill="none" />
  
  <!-- Mouth (smiling) -->
  <path d="M7 8c0.3 0.5 1.7 0.5 2 0" fill="#E76F51" />
  
  <!-- Shirt (blue) with collar -->
  <path d="M4 9.5C4 9.2 4.2 9 4.5 9h7c0.3 0 0.5 0.2 0.5 0.5v3c0 0.3-0.2 0.5-0.5 0.5h-7C4.2 13 4 12.8 4 12.5v-3z" fill="#2A9D8F" />
  <path d="M7 9v1.5L8 11l1-0.5V9" fill="#1F7A70" />
  
  <!-- Arms (skin tone and shirt) -->
  <path d="M3.5 9.5C3.5 9.2 3.7 9 4 9v3c-0.3 0-0.5-0.2-0.5-0.5v-2z" fill="#2A9D8F" />
  <path d="M12.5 9.5c0-0.3-0.2-0.5-0.5-0.5v3c0.3 0 0.5-0.2 0.5-0.5v-2z" fill="#2A9D8F" />
  <ellipse cx="3" cy="10.5" rx="0.5" ry="1" fill="#F4A261" />
  <ellipse cx="13" cy="10.5" rx="0.5" ry="1" fill="#F4A261" />
  
  <!-- Pants (dark gray) -->
  <path d="M5 13c-0.3 0-0.5 0.2-0.5 0.5v1c0 0.3 0.2 0.5 0.5 0.5h1.5V13H5z" fill="#264653" />
  <path d="M11 13c0.3 0 0.5 0.2 0.5 0.5v1c0 0.3-0.2 0.5-0.5 0.5H9.5V13H11z" fill="#264653" />
  <rect x="6.5" y="13" width="3" height="2" fill="#264653" />
  
  <!-- Boots (brown) -->
  <path d="M5 15c-0.3 0-0.5 0.2-0.5 0.5C4.5 15.8 4.7 16 5 16h2v-1H5z" fill="#8D5524" />
  <path d="M11 15c0.3 0 0.5 0.2 0.5 0.5 0 0.3-0.2 0.5-0.5 0.5H9v-1h2z" fill="#8D5524" />
</svg>