<svg xmlns="http://www.w3.org/2000/svg" viewBox="0 0 200 100">
  <!-- Reinforced Body/Motor Section -->
  <rect x="70" y="20" width="75" height="60" rx="6" fill="#1e3c64" stroke="#0a1a30" stroke-width="3"/>
  <rect x="75" y="25" width="65" height="50" rx="4" fill="#2b5695" stroke-width="0"/>
  
  <!-- Industrial Vent Grille -->
  <rect x="80" y="30" width="25" height="40" rx="2" fill="#0a1a30" stroke="#1e3c64" stroke-width="1"/>
  <line x1="83" y1="35" x2="102" y2="35" stroke="#2b5695" stroke-width="1.5"/>
  <line x1="83" y1="40" x2="102" y2="40" stroke="#2b5695" stroke-width="1.5"/>
  <line x1="83" y1="45" x2="102" y2="45" stroke="#2b5695" stroke-width="1.5"/>
  <line x1="83" y1="50" x2="102" y2="50" stroke="#2b5695" stroke-width="1.5"/>
  <line x1="83" y1="55" x2="102" y2="55" stroke="#2b5695" stroke-width="1.5"/>
  <line x1="83" y1="60" x2="102" y2="60" stroke="#2b5695" stroke-width="1.5"/>
  <line x1="83" y1="65" x2="102" y2="65" stroke="#2b5695" stroke-width="1.5"/>
  
  <!-- Industrial Control Panel -->
  <rect x="110" y="30" width="30" height="20" rx="2" fill="#0a1a30" stroke="#000000" stroke-width="1"/>
  
  <!-- Power Button -->
  <circle cx="120" cy="40" r="5" fill="#cc0000" stroke="#aa0000" stroke-width="1"/>
  <circle cx="120" cy="40" r="2" fill="#ff3333" stroke-width="0"/>
  
  <!-- Cooling Control -->
  <circle cx="130" cy="40" r="5" fill="#00aaff" stroke="#0088cc" stroke-width="1"/>
  <path d="M130,37 L130,43 M127,40 L133,40" stroke="#ffffff" stroke-width="1"/>
  
  <!-- Heavy-Duty Reinforced Connector -->
  <rect x="145" y="30" width="15" height="40" fill="#444444" stroke="#222222" stroke-width="2.5"/>
  <line x1="145" y1="35" x2="160" y2="35" stroke="#222222" stroke-width="2"/>
  <line x1="145" y1="65" x2="160" y2="65" stroke="#222222" stroke-width="2"/>
  
  <!-- Reinforced Drill Bit Base -->
  <polygon points="160,30 176,20 176,80 160,70" fill="#555555" stroke="#333333" stroke-width="2.5"/>
  
  <!-- Diamond Drill Bit -->
  <polygon points="176,20 196,50 176,80" fill="#888888" stroke="#666666" stroke-width="2.5"/>
  
  <!-- Diamond Tip -->
  <polygon points="187,40 196,50 187,60" fill="#c9f5f9" stroke="#a7e0e7" stroke-width="1.5"/>
  <polygon points="187,43 193,50 187,57" fill="#55ddff" stroke-width="0"/>
  <line x1="187" y1="43" x2="193" y2="50" stroke="#ffffff" stroke-width="0.5"/>
  <line x1="187" y1="57" x2="193" y2="50" stroke="#ffffff" stroke-width="0.5"/>
  
  <!-- Diamond Drill Bit Details -->
  <path d="M176,30 Q180,40 184,50 Q180,60 176,70" fill="none" stroke="#666666" stroke-width="2" stroke-linecap="round"/>
  <path d="M179,35 Q183,45 187,50 Q183,55 179,65" fill="none" stroke="#666666" stroke-width="2" stroke-linecap="round"/>
</svg>