<svg width="100" height="100" viewBox="0 0 16 16" xmlns="http://www.w3.org/2000/svg" style="image-rendering: pixelated;">
    <!-- Handle (brown, diagonal) -->
    <rect x="5" y="10" width="1" height="1" fill="#8B4513"/>
    <rect x="6" y="9" width="1" height="1" fill="#8B4513"/>
    <rect x="7" y="8" width="1" height="1" fill="#8B4513"/>
    <rect x="8" y="7" width="1" height="1" fill="#8B4513"/>
    <rect x="9" y="6" width="1" height="1" fill="#8B4513"/>
    <rect x="10" y="5" width="1" height="1" fill="#8B4513"/>
    <rect x="11" y="4" width="1" height="1" fill="#8B4513"/>
    <rect x="12" y="3" width="1" height="1" fill="#8B4513"/>
    
    <!-- Pickaxe head (iron colored) -->
    <rect x="8" y="2" width="1" height="1" fill="#D8D8D8"/>
    <rect x="7" y="3" width="1" height="1" fill="#D8D8D8"/>
    <rect x="6" y="4" width="1" height="1" fill="#D8D8D8"/>
    <rect x="9" y="3" width="1" height="1" fill="#D8D8D8"/>
    <rect x="10" y="4" width="1" height="1" fill="#D8D8D8"/>
    <rect x="11" y="5" width="1" height="1" fill="#D8D8D8"/>
    <rect x="12" y="6" width="1" height="1" fill="#D8D8D8"/>
    
    <!-- Outline (darker shades for pixelated effect) -->
    <rect x="6" y="3" width="1" height="1" fill="#A8A8A8"/>
    <rect x="5" y="4" width="1" height="1" fill="#A8A8A8"/>
    <rect x="11" y="3" width="1" height="1" fill="#A8A8A8"/>
    <rect x="12" y="4" width="1" height="1" fill="#A8A8A8"/>
    <rect x="13" y="3" width="1" height="1" fill="#A8A8A8"/>
</svg>